<?xml version="1.0" encoding="UTF-8" standalone="no"?>
<!-- Created with Inkscape (http://www.inkscape.org/) -->

<svg
   width="91.783455mm"
   height="35.070816mm"
   viewBox="0 0 91.783455 35.070816"
   version="1.1"
   id="svg1"
   xml:space="preserve"
   xmlns="http://www.w3.org/2000/svg"
   xmlns:svg="http://www.w3.org/2000/svg"><defs
     id="defs1"><linearGradient
       id="swatch6"><stop
         style="stop-color:#000000;stop-opacity:1;"
         offset="0"
         id="stop7" /></linearGradient></defs><g
     id="layer1"
     transform="translate(-99.813891,-79.99999)"><path
       id="rect7-6-2"
       style="fill:#7edffd;fill-opacity:1;stroke:none;stroke-width:0.246354"
       d="M 99.813894,88.767701 115,79.999997 l 0.13251,17.656491 -15.318616,8.646622 z" /><path
       style="fill:none;stroke:none;stroke-width:0.265;stroke-dasharray:none;stroke-opacity:1"
       id="path10"
       transform="translate(24.261615,10.759)" /><path
       id="rect7-6"
       style="fill:#3da6f1;fill-opacity:1;stroke:none;stroke-width:0.246354"
       d="m 107.34069,93.091013 15.25237,-8.707164 0.0663,17.595951 -15.25236,8.70716 z" /><path
       id="path14"
       style="fill:#3da6f1;fill-opacity:1;stroke-width:0.246"
       transform="translate(-23.236775,5.8143117)"
       d="m 138.23677,109.2565 -7.59305,-4.38385 7.59305,-4.38385 z" /><path
       id="path14-3"
       style="fill:#7edffd;fill-opacity:1;stroke-width:0.246"
       d="m 107.40695,110.68696 -7.593056,-4.38385 7.559956,-4.41412 z" /><path
       id="rect7"
       style="fill:#006be4;fill-opacity:1;stroke:none;stroke-width:0.246;stroke-dasharray:none"
       d="m 115,97.535408 15.18611,-8.767707 V 106.30311 L 115,115.07081 Z" /><path
       style="font-size:14.1111px;font-family:'Roboto Condensed';-inkscape-font-specification:'Roboto Condensed, ';text-align:center;text-anchor:middle;fill:#ffffff;stroke:#ffffff;stroke-width:0.246"
       d="m 137.09826,101.11485 h -1.70877 l 0.0138,-1.08176 h 1.69499 q 0.90261,0 1.46761,-0.344506 0.56499,-0.351399 0.83371,-1.033527 0.26872,-0.689019 0.26872,-1.701876 v -1.715656 q 0,-0.799262 -0.15159,-1.378038 -0.15158,-0.578775 -0.45475,-0.950845 -0.30317,-0.37207 -0.76481,-0.551215 -0.46164,-0.186035 -1.08176,-0.186035 h -1.86035 v -1.088649 h 1.86035 q 0.84749,0 1.52962,0.268717 0.68213,0.261827 1.17133,0.792371 0.48921,0.523654 0.74414,1.302245 0.26183,0.778591 0.26183,1.805229 v 1.701876 q 0,1.026637 -0.26183,1.805228 -0.25493,0.778591 -0.75103,1.302241 -0.49609,0.52366 -1.20578,0.79238 -0.7028,0.26182 -1.60541,0.26182 z M 136.09229,91.082743 V 101.11485 H 134.8245 V 91.082743 Z m 10.27327,8.757426 V 95.79563 q 0,-0.440972 -0.13781,-0.70969 -0.13091,-0.268717 -0.39963,-0.39274 -0.26182,-0.124023 -0.66145,-0.124023 -0.38586,0 -0.66835,0.158474 -0.27561,0.158474 -0.42719,0.420301 -0.1447,0.261827 -0.1447,0.578776 h -1.21956 q 0,-0.399631 0.17225,-0.792372 0.17915,-0.39274 0.50988,-0.709689 0.33073,-0.323838 0.79237,-0.509873 0.46853,-0.192926 1.04731,-0.192926 0.68902,0 1.21956,0.227376 0.53054,0.220486 0.83371,0.72347 0.30317,0.502983 0.30317,1.336696 v 3.679359 q 0,0.37207 0.0551,0.792371 0.062,0.4203 0.17226,0.72347 v 0.11024 h -1.26091 q -0.0896,-0.22048 -0.1378,-0.58566 -0.0482,-0.37207 -0.0482,-0.689021 z m 0.19292,-3.245278 0.0138,0.895724 h -0.84749 q -0.43408,0 -0.79237,0.09646 -0.3514,0.09646 -0.60634,0.282497 -0.25493,0.179145 -0.39274,0.447863 -0.13091,0.268717 -0.13091,0.613226 0,0.447862 0.12402,0.716579 0.12403,0.261827 0.37207,0.37896 0.24805,0.11714 0.62701,0.11714 0.46164,0 0.81304,-0.213602 0.3514,-0.213596 0.54433,-0.516764 0.19981,-0.303168 0.18603,-0.564995 l 0.26872,0.571885 q -0.0276,0.268717 -0.17915,0.585666 -0.14469,0.31006 -0.40652,0.59945 -0.26183,0.2825 -0.62011,0.46853 -0.3514,0.17915 -0.79238,0.17915 -0.64767,0 -1.13688,-0.24805 -0.48231,-0.24805 -0.75103,-0.73036 -0.26871,-0.482316 -0.26871,-1.192005 0,-0.537434 0.18603,-0.992187 0.18604,-0.454752 0.55122,-0.785481 0.36518,-0.337619 0.91639,-0.523654 0.55811,-0.186035 1.28847,-0.186035 z m 5.63618,-2.935219 v 0.978406 h -3.47955 v -0.978406 z m -2.34267,-1.812119 h 1.21956 v 7.42073 q 0,0.37896 0.0896,0.571886 0.0965,0.192921 0.24115,0.254941 0.1447,0.062 0.31006,0.062 0.12403,0 0.27561,-0.0276 0.15158,-0.0344 0.20671,-0.0551 l -0.007,1.04042 q -0.12403,0.0482 -0.33073,0.0896 -0.20671,0.0482 -0.52366,0.0482 -0.39274,0 -0.73036,-0.18604 -0.33762,-0.18603 -0.54432,-0.62012 -0.20671,-0.44097 -0.20671,-1.185107 z m 7.44829,7.992616 V 95.79563 q 0,-0.440972 -0.1378,-0.70969 -0.13091,-0.268717 -0.39963,-0.39274 -0.26183,-0.124023 -0.66146,-0.124023 -0.38585,0 -0.66835,0.158474 -0.2756,0.158474 -0.42719,0.420301 -0.14469,0.261827 -0.14469,0.578776 h -1.21957 q 0,-0.399631 0.17226,-0.792372 0.17914,-0.39274 0.50987,-0.709689 0.33073,-0.323838 0.79237,-0.509873 0.46854,-0.192926 1.04731,-0.192926 0.68902,0 1.21957,0.227376 0.53054,0.220486 0.83371,0.72347 0.30317,0.502983 0.30317,1.336696 v 3.679359 q 0,0.37207 0.0551,0.792371 0.062,0.4203 0.17225,0.72347 v 0.11024 h -1.2609 q -0.0896,-0.22048 -0.13781,-0.58566 -0.0482,-0.37207 -0.0482,-0.689021 z m 0.19293,-3.245278 0.0138,0.895724 h -0.84749 q -0.43409,0 -0.79238,0.09646 -0.35139,0.09646 -0.60633,0.282497 -0.25494,0.179145 -0.39274,0.447863 -0.13092,0.268717 -0.13092,0.613226 0,0.447862 0.12403,0.716579 0.12402,0.261827 0.37207,0.37896 0.24804,0.11714 0.627,0.11714 0.46165,0 0.81305,-0.213602 0.3514,-0.213596 0.54432,-0.516764 0.19982,-0.303168 0.18604,-0.564995 l 0.26871,0.571885 q -0.0276,0.268717 -0.17914,0.585666 -0.1447,0.31006 -0.40652,0.59945 -0.26183,0.2825 -0.62012,0.46853 -0.3514,0.17915 -0.79237,0.17915 -0.64768,0 -1.13688,-0.24805 -0.48231,-0.24805 -0.75103,-0.73036 -0.26872,-0.482316 -0.26872,-1.192005 0,-0.537434 0.18604,-0.992187 0.18603,-0.454752 0.55121,-0.785481 0.36518,-0.337619 0.9164,-0.523654 0.5581,-0.186035 1.28846,-0.186035 z m 7.46207,3.369301 2.22553,2.018828 -0.86127,0.82682 -2.1773,-1.99127 z m 2.08773,-4.733558 v 1.736327 q 0,1.067979 -0.23427,1.874131 -0.22738,0.799261 -0.66835,1.336698 -0.44097,0.53743 -1.06798,0.80615 -0.62011,0.26872 -1.39871,0.26872 -0.75103,0 -1.37114,-0.26872 -0.62012,-0.26872 -1.06798,-0.80615 -0.44786,-0.537437 -0.69591,-1.336698 -0.24116,-0.806152 -0.24116,-1.874131 v -1.736327 q 0,-1.067978 0.24116,-1.86724 0.24116,-0.799261 0.68902,-1.336696 0.44786,-0.544325 1.06798,-0.813042 0.62011,-0.268717 1.37114,-0.268717 0.7786,0 1.39871,0.268717 0.62701,0.268717 1.06798,0.813042 0.44097,0.537435 0.67524,1.336696 0.23427,0.799262 0.23427,1.86724 z m -1.25402,1.736327 v -1.750107 q 0,-0.826822 -0.1378,-1.419378 -0.13781,-0.599446 -0.41341,-0.978407 -0.26872,-0.37896 -0.66146,-0.558105 -0.39274,-0.186035 -0.90951,-0.186035 -0.48231,0 -0.87505,0.186035 -0.38585,0.179145 -0.66146,0.558105 -0.2756,0.378961 -0.42719,0.978407 -0.14469,0.592556 -0.14469,1.419378 v 1.750107 q 0,0.833713 0.14469,1.433159 0.15159,0.599446 0.42719,0.985296 0.2825,0.378961 0.66835,0.564996 0.39274,0.179148 0.87505,0.179148 0.51677,0 0.90951,-0.179148 0.39963,-0.186035 0.66835,-0.564996 0.26871,-0.38585 0.39963,-0.985296 0.1378,-0.599446 0.1378,-1.433159 z m 6.86952,2.425345 v -5.732634 h 1.21956 v 7.455178 h -1.15755 z m 0.22737,-1.570962 0.48231,-0.01378 q 0,0.74414 -0.13091,1.378037 -0.12402,0.627007 -0.41341,1.088649 -0.2825,0.46164 -0.75103,0.72347 -0.46853,0.25494 -1.15066,0.25494 -0.46164,0 -0.8406,-0.15848 -0.37207,-0.15847 -0.64768,-0.4892 -0.26872,-0.33073 -0.4203,-0.861274 -0.1447,-0.530544 -0.1447,-1.274684 v -4.80935 h 1.21268 v 4.82313 q 0,0.502984 0.0896,0.833712 0.0896,0.323839 0.24115,0.516764 0.15159,0.186032 0.33762,0.261832 0.18604,0.0758 0.37896,0.0758 0.64768,0 1.03353,-0.310061 0.38585,-0.316948 0.55122,-0.847493 0.17225,-0.537434 0.17225,-1.192002 z m 5.49148,3.431316 q -0.66835,0 -1.20578,-0.19982 -0.53744,-0.19981 -0.9164,-0.60634 -0.37896,-0.41341 -0.57877,-1.040413 -0.19982,-0.627007 -0.19982,-1.48139 v -0.840603 q 0,-0.985296 0.22738,-1.667425 0.23427,-0.682128 0.62701,-1.095539 0.39274,-0.420301 0.88883,-0.606336 0.49609,-0.192926 1.01975,-0.192926 0.7028,0 1.19889,0.227376 0.49609,0.227377 0.80615,0.675239 0.31006,0.447862 0.45475,1.102429 0.15159,0.654568 0.15159,1.508951 v 0.709689 h -4.65777 v -1.040418 h 3.4382 v -0.172255 q -0.0276,-0.578775 -0.15847,-1.019747 -0.12402,-0.440972 -0.41341,-0.689019 -0.28939,-0.254936 -0.81993,-0.254936 -0.33762,0 -0.62701,0.117133 -0.2825,0.110243 -0.4892,0.39274 -0.19982,0.275608 -0.31695,0.764811 -0.11024,0.489203 -0.11024,1.240233 v 0.840603 q 0,0.599446 0.11024,1.033528 0.11713,0.427191 0.33762,0.709689 0.22737,0.275607 0.55121,0.413416 0.33073,0.13091 0.75103,0.13091 0.61323,0 1.01286,-0.234268 0.39963,-0.241156 0.69591,-0.613226 l 0.64079,0.764814 q -0.19982,0.28249 -0.52366,0.54432 -0.31695,0.25494 -0.78548,0.4203 -0.46164,0.15848 -1.10932,0.15848 z m 5.16764,-6.421656 v 6.283846 h -1.21956 v -7.455178 h 1.17822 z m 1.85346,-1.212673 0.007,1.185112 q -0.15158,-0.03445 -0.27561,-0.04134 -0.11713,-0.01378 -0.2756,-0.01378 -0.34451,0 -0.60634,0.137804 -0.25494,0.137804 -0.44097,0.38585 -0.18604,0.248047 -0.29628,0.592556 -0.11024,0.33762 -0.15158,0.74414 l -0.31695,0.206706 q 0,-0.675238 0.10335,-1.267794 0.11024,-0.592556 0.33762,-1.047308 0.22737,-0.461643 0.57877,-0.71658 0.35829,-0.261827 0.85439,-0.261827 0.11024,0 0.26871,0.03445 0.16537,0.02756 0.2136,0.06201 z m 3.07991,6.724819 1.66054,-6.683478 h 1.29535 l -2.45979,8.605838 q -0.0896,0.27561 -0.24116,0.59256 -0.14469,0.32384 -0.37207,0.61323 -0.22738,0.28938 -0.54432,0.46853 -0.31695,0.18603 -0.74414,0.18603 -0.13092,0 -0.33762,-0.0413 -0.19982,-0.0413 -0.28939,-0.0689 v -1.03353 q 0.0413,0.007 0.13091,0.0138 0.0896,0.0138 0.13092,0.0138 0.35829,0 0.60633,-0.11713 0.25494,-0.11024 0.43408,-0.37896 0.17915,-0.26183 0.30317,-0.72347 z m -1.07486,-6.683478 1.48139,5.787756 0.31694,1.343582 -0.86816,0.46854 -2.25998,-7.599878 z"
       id="text15"
       aria-label="DataQuery" /></g></svg>
