<svg width="20" height="14" viewBox="0 0 20 14" fill="none" xmlns="http://www.w3.org/2000/svg">
<path d="M17.5 0.437531H2.5C2.0856 0.437531 1.68817 0.602151 1.39515 0.895176C1.10212 1.1882 0.9375 1.58563 0.9375 2.00003V12C0.9375 12.4144 1.10212 12.8119 1.39515 13.1049C1.68817 13.3979 2.0856 13.5625 2.5 13.5625H17.5C17.9144 13.5625 18.3118 13.3979 18.6049 13.1049C18.8979 12.8119 19.0625 12.4144 19.0625 12V2.00003C19.0625 1.58563 18.8979 1.1882 18.6049 0.895176C18.3118 0.602151 17.9144 0.437531 17.5 0.437531ZM17.1875 2.31253V3.87503H2.8125V2.31253H17.1875ZM2.8125 11.6875V5.75003H17.1875V11.6875H2.8125ZM16.25 9.81253C16.25 10.0612 16.1512 10.2996 15.9754 10.4754C15.7996 10.6513 15.5611 10.75 15.3125 10.75H12.8125C12.5639 10.75 12.3254 10.6513 12.1496 10.4754C11.9738 10.2996 11.875 10.0612 11.875 9.81253C11.875 9.56389 11.9738 9.32543 12.1496 9.14962C12.3254 8.9738 12.5639 8.87503 12.8125 8.87503H15.3125C15.5611 8.87503 15.7996 8.9738 15.9754 9.14962C16.1512 9.32543 16.25 9.56389 16.25 9.81253ZM10.9375 9.81253C10.9375 10.0612 10.8387 10.2996 10.6629 10.4754C10.4871 10.6513 10.2486 10.75 10 10.75H9.0625C8.81386 10.75 8.5754 10.6513 8.39959 10.4754C8.22377 10.2996 8.125 10.0612 8.125 9.81253C8.125 9.56389 8.22377 9.32543 8.39959 9.14962C8.5754 8.9738 8.81386 8.87503 9.0625 8.87503H10C10.2486 8.87503 10.4871 8.9738 10.6629 9.14962C10.8387 9.32543 10.9375 9.56389 10.9375 9.81253Z" fill="#475569"/>
</svg>
