<svg width="18" height="17" viewBox="0 0 18 17" fill="none" xmlns="http://www.w3.org/2000/svg">
<path d="M17.311 15.4063C16.2398 13.5263 14.5673 12.0615 12.5625 11.2477C13.5595 10.5 14.2959 9.45754 14.6675 8.26804C15.039 7.07855 15.0269 5.8023 14.6328 4.62007C14.2388 3.43784 13.4827 2.40958 12.4718 1.68092C11.4608 0.95227 10.2462 0.560173 9.00003 0.560173C7.75386 0.560173 6.53927 0.95227 5.52832 1.68092C4.51737 2.40958 3.7613 3.43784 3.36723 4.62007C2.97315 5.8023 2.96104 7.07855 3.33261 8.26804C3.70418 9.45754 4.44059 10.5 5.43753 11.2477C3.43279 12.0615 1.76022 13.5263 0.689097 15.4063C0.622726 15.513 0.57849 15.632 0.559019 15.7561C0.539548 15.8803 0.545239 16.0071 0.575754 16.129C0.606269 16.2509 0.660986 16.3655 0.73665 16.4658C0.812314 16.5661 0.907382 16.6503 1.0162 16.7131C1.12502 16.776 1.24537 16.8163 1.3701 16.8318C1.49482 16.8472 1.62138 16.8374 1.74224 16.8029C1.8631 16.7685 1.9758 16.7101 2.07363 16.6312C2.17147 16.5523 2.25245 16.4546 2.31175 16.3438C3.72738 13.8969 6.22738 12.4375 9.00003 12.4375C11.7727 12.4375 14.2727 13.8977 15.6883 16.3438C15.8168 16.5504 16.0207 16.699 16.2568 16.7581C16.4929 16.8172 16.7427 16.7822 16.9534 16.6604C17.1641 16.5387 17.3193 16.3397 17.386 16.1057C17.4527 15.8717 17.4258 15.6208 17.311 15.4063ZM4.93753 6.50002C4.93753 5.69653 5.1758 4.91109 5.62219 4.24301C6.06858 3.57494 6.70306 3.05424 7.44538 2.74676C8.18771 2.43928 9.00454 2.35882 9.79259 2.51558C10.5806 2.67233 11.3045 3.05924 11.8727 3.6274C12.4408 4.19555 12.8277 4.91941 12.9845 5.70746C13.1412 6.49551 13.0608 7.31234 12.7533 8.05467C12.4458 8.79699 11.9251 9.43147 11.257 9.87786C10.589 10.3243 9.80352 10.5625 9.00003 10.5625C7.92297 10.5613 6.89038 10.1329 6.12878 9.37127C5.36719 8.60967 4.93878 7.57708 4.93753 6.50002Z" fill="#475569"/>
</svg>
