<svg width="17" height="16" viewBox="0 0 17 16" fill="none" xmlns="http://www.w3.org/2000/svg">
<path d="M7.6875 14.8751C7.6875 15.1238 7.58873 15.3622 7.41291 15.538C7.2371 15.7138 6.99864 15.8126 6.75 15.8126H1.75C1.50136 15.8126 1.2629 15.7138 1.08709 15.538C0.911272 15.3622 0.8125 15.1238 0.8125 14.8751V1.12512C0.8125 0.876482 0.911272 0.638025 1.08709 0.462209C1.2629 0.286394 1.50136 0.187622 1.75 0.187622H6.75C6.99864 0.187622 7.2371 0.286394 7.41291 0.462209C7.58873 0.638025 7.6875 0.876482 7.6875 1.12512C7.6875 1.37376 7.58873 1.61222 7.41291 1.78803C7.2371 1.96385 6.99864 2.06262 6.75 2.06262H2.6875V13.9376H6.75C6.99864 13.9376 7.2371 14.0364 7.41291 14.2122C7.58873 14.388 7.6875 14.6265 7.6875 14.8751ZM16.1633 7.33684L13.0383 4.21184C12.8622 4.03572 12.6233 3.93678 12.3742 3.93678C12.1251 3.93678 11.8863 4.03572 11.7102 4.21184C11.534 4.38796 11.4351 4.62683 11.4351 4.8759C11.4351 5.12497 11.534 5.36385 11.7102 5.53997L13.2344 7.06262H6.75C6.50136 7.06262 6.2629 7.16139 6.08709 7.33721C5.91127 7.51302 5.8125 7.75148 5.8125 8.00012C5.8125 8.24876 5.91127 8.48722 6.08709 8.66303C6.2629 8.83885 6.50136 8.93762 6.75 8.93762H13.2344L11.7094 10.4618C11.5333 10.638 11.4343 10.8768 11.4343 11.1259C11.4343 11.375 11.5333 11.6138 11.7094 11.79C11.8855 11.9661 12.1244 12.065 12.3734 12.065C12.6225 12.065 12.8614 11.9661 13.0375 11.79L16.1625 8.66496C16.2499 8.57792 16.3194 8.47447 16.3667 8.36054C16.4141 8.24661 16.4386 8.12445 16.4386 8.00106C16.4387 7.87768 16.4144 7.75549 16.3672 7.64151C16.3199 7.52752 16.2506 7.42399 16.1633 7.33684Z" fill="#475569"/>
</svg>
